/* XPM */
static char *mangue_17556641680870167[] = {
/* columns rows colors chars-per-pixel */
"64 64 254 2 ",
"   c #7D7F00",
".  c #75604E",
"X  c #B13F2B",
"o  c #B3530A",
"O  c #927700",
"+  c #B96D04",
"@  c #AD7B00",
"#  c #BA7802",
"$  c #AE6E0C",
"%  c #B55B2B",
"&  c #B24C32",
"*  c #B77128",
"=  c #B56F2F",
"-  c #8A583D",
";  c #C74D14",
":  c #C76D07",
">  c #D76C07",
",  c #C3720B",
"<  c #C77803",
"1  c #D57B01",
"2  c #DB7D04",
"3  c #DA7609",
"4  c #C56918",
"5  c #D76A1B",
"6  c #C97416",
"7  c #DB7114",
"8  c #DB7619",
"9  c #E17717",
"0  c #D25A27",
"q  c #C2433B",
"w  c #D84938",
"e  c #D95834",
"r  c #C85229",
"t  c #E25A3C",
"y  c #CB6726",
"u  c #D86628",
"i  c #CD7325",
"p  c #D7772A",
"a  c #DD6B33",
"s  c #DD643A",
"d  c #D96737",
"f  c #D77837",
"g  c #CE6337",
"h  c #E27329",
"j  c #E2693B",
"k  c #E3743D",
"l  c #E27735",
"z  c #B54D47",
"x  c #B77E63",
"c  c #AB694C",
"v  c #D84A44",
"b  c #DB5448",
"n  c #CD564F",
"m  c #E45A45",
"M  c #E75C57",
"N  c #FF5D5C",
"B  c #C96546",
"V  c #DE6A4B",
"C  c #DA6846",
"Z  c #DC764A",
"A  c #D96B57",
"S  c #DD7559",
"D  c #CA7056",
"F  c #E66648",
"G  c #E27343",
"H  c #E2724B",
"J  c #E3794C",
"K  c #E27B44",
"L  c #E46B53",
"P  c #E86757",
"I  c #E47C55",
"U  c #E27B5C",
"Y  c #E57357",
"T  c #F16B53",
"R  c #D76A64",
"E  c #D97865",
"W  c #C9756D",
"Q  c #E86A63",
"!  c #E27C63",
"~  c #E37C6B",
"^  c #E97765",
"/  c #F07263",
"(  c #E57D72",
")  c #F27470",
"_  c #6E8301",
"`  c #6E8800",
"'  c #768803",
"]  c #7B9501",
"[  c #7F9707",
"{  c #798C16",
"}  c #978300",
"|  c #8A9203",
" . c #869C02",
".. c #8B9C00",
"X. c #859C0C",
"o. c #869209",
"O. c #999904",
"+. c #849C15",
"@. c #898A0B",
"#. c #A68903",
"$. c #BB8502",
"%. c #B98B03",
"&. c #A89604",
"*. c #B39700",
"=. c #BB9D02",
"-. c #B99706",
";. c #B79717",
":. c #A18F1F",
">. c #8AA305",
",. c #9CA402",
"<. c #95AA02",
"1. c #9CAC03",
"2. c #96A508",
"3. c #96A712",
"4. c #87A312",
"5. c #ACA302",
"6. c #A3AC01",
"7. c #AAAE00",
"8. c #A5A608",
"9. c #BCA401",
"0. c #B2AC00",
"q. c #BCAD00",
"w. c #B7A606",
"e. c #ADB101",
"r. c #A7B106",
"t. c #B4B202",
"y. c #BCB402",
"u. c #B7B704",
"i. c #B6A615",
"p. c #ADAF19",
"a. c #8C9730",
"s. c #B78629",
"d. c #B28E32",
"f. c #9DB337",
"g. c #96AD30",
"h. c #B0B62B",
"j. c #CD8103",
"k. c #C38C02",
"l. c #CA8D01",
"z. c #CB880D",
"x. c #D48503",
"c. c #DB8203",
"v. c #D58C03",
"b. c #DB8B02",
"n. c #D4840A",
"m. c #DC820B",
"M. c #D78D0B",
"N. c #CC9302",
"B. c #C59705",
"V. c #D59302",
"C. c #DB9403",
"Z. c #D49B02",
"A. c #DB9B02",
"S. c #DC930A",
"D. c #D89B0C",
"F. c #CA8216",
"G. c #D58717",
"H. c #DC9C14",
"J. c #D49311",
"K. c #E2870A",
"L. c #E6960B",
"P. c #CCA402",
"I. c #C4AC00",
"U. c #CBAC03",
"Y. c #CCAA08",
"T. c #D4A302",
"R. c #DBA403",
"E. c #D4AB02",
"W. c #DAAB05",
"Q. c #D8A90C",
"!. c #C4B301",
"~. c #CCB301",
"^. c #CAB901",
"/. c #C3B803",
"(. c #D2B303",
"). c #D3B209",
"_. c #D9A513",
"`. c #D68528",
"'. c #D78638",
"]. c #C1953E",
"[. c #E4812B",
"{. c #E3853D",
"}. c #C3BD29",
"|. c #B2B04C",
" X c #B0B56D",
".X c #AE9C59",
"XX c #DC8B42",
"oX c #D88743",
"OX c #E3834C",
"+X c #E38747",
"@X c #E4835B",
"#X c #E58455",
"$X c #F8815F",
"%X c #DA836E",
"&X c #D99273",
"*X c #E58463",
"=X c #E4836B",
"-X c #E98969",
";X c #E48574",
":X c #E48B75",
">X c #E48C7D",
",X c #E88877",
"<X c #E5927E",
"1X c #E8917D",
"2X c #D7BD76",
"3X c #C2A547",
"4X c #C9D06C",
"5X c #CDC44D",
"6X c #B4BE83",
"7X c #CA9B94",
"8X c #D78F88",
"9X c #EA9484",
"0X c #E79B8C",
"qX c #E69789",
"wX c #E89A93",
"eX c #E99184",
"rX c #D8AA92",
"tX c #E8A598",
"yX c #EBAB89",
"uX c #D6B3A4",
"iX c #ECADA4",
"pX c #E7A7A7",
"aX c #E9B2A8",
"sX c #ECB3AA",
"dX c #BEC285",
"fX c #CACF9A",
"gX c #D2CF8B",
"hX c #E0C59A",
"jX c #D4D5A6",
"kX c #E7C8BC",
"lX c #F0D5B7",
"zX c #DEE5B9",
"xX c #EBE9B6",
"cX c #F5DACB",
"vX c #EDD2C9",
"bX c #EBE8CA",
"nX c #F5E9C9",
"mX c #F5E9D8",
"MX c #FBF5DC",
"NX c #EBF2D1",
"BX c #F8EAE5",
"VX c #FEF3E9",
"CX c #FCFDEC",
"ZX c #F8F7E8",
"AX c #EAFDFB",
"SX c #FDF5F5",
"DX c #F4FDF5",
"FX c #FDFDF4",
"GX c #FEF6FD",
"HX c #F5FEFC",
"JX c #FFFFFF",
"KX c #F3F5FA",
"LX c #F4F2EC",
"PX c #E6D2D8",
/* pixels */
"JXJXJXJXJXJXJXJXJXJXJXJXJXJXJXJXJXJXJXJXJXJXJXJXJXJXJXJXJXJXHXJXJXJXJXJXJXJXJXHXJXJXJXJXJXJXJXJXJXJXJXJXJXJXJXJXJXJXJXJXJXJXJXJX",
"JXJXJXJXJXJXJXJXJXJXJXJXJXJXJXJXJXJXJXJXJXJXJXJXFXJXJXJXJXJXJXJXJXJXJXGXJXJXJXJXJXJXJXJXJXJXJXJXJXJXJXJXJXJXJXJXJXJXJXJXJXJXJXJX",
"JXJXJXJXJXJXJXJXJXJXJXJXJXJXJXJXJXJXJXJXJXJXJXJXJXFXFXJXGXFXGXJXHXJXJXJXJXJXJXJXJXJXJXJXJXJXJXJXJXJXJXJXJXJXJXJXJXJXJXJXJXJXJXJX",
"JXJXJXJXJXJXJXJXJXJXJXJXJXJXJXJXJXJXJXJXJXJXJXJXFXJXJXJXJXJXJXJXJXJXJXJXJXJXJXGXJXJXJXJXJXJXJXJXJXJXJXJXJXJXJXJXJXJXJXJXJXJXJXJX",
"JXJXJXJXJXJXJXJXJXJXJXJXJXJXJXJXJXJXJXJXJXJXJXJXJXJXJXJXJXJXHXHXFXJXJXJXJXJXJXJXJXJXJXJXJXJXJXJXJXJXJXJXJXJXJXJXJXJXJXJXJXJXJXJX",
"JXJXJXJXJXJXJXJXJXJXJXJXJXJXJXJXJXJXJXJXJXJXJXJXJXGXJXGXJXJXJXJXGXJXJXJXHXJXJXJXJXJXJXJXJXJXJXJXJXJXJXJXJXJXJXJXJXJXJXJXJXJXJXJX",
"JXJXJXJXJXJXJXJXJXJXJXJXJXJXJXJXJXJXJXJXJXJXJXJXJXJXJXHXSXLXSXGXGXGXJXJXJXGXJXJXJXJXJXJXJXJXJXJXJXJXJXJXJXJXJXJXJXJXJXJXJXJXJXJX",
"JXJXJXJXJXJXJXJXJXJXJXJXJXJXJXJXJXJXJXJXJXJXJXJXHXJXVXBXvXvXvXsXPXLXSXJXJXJXJXJXJXJXJXJXJXJXJXJXJXJXJXJXJXJXJXJXJXJXJXJXJXJXJXJX",
"JXJXJXJXJXJXJXJXJXJXGXJXJXJXJXJXJXJXFXHXJXGXGXJXvXwXE S P P b F P A E tXcXVXJXJXHXJXFXDXAXJXGXFXJXJXJXJXJXJXJXJXJXJXJXJXJXJXJXJX",
"JXJXJXJXJXJXJXJXJXJXJXJXGXFXJXJXGXJXHXJXHXFXcXeXR R R Y ^ Y A Z D C b b n W aXMXGXDXJXGXGXJXJXJXJXJXJXJXJXJXJXJXJXJXJXJXJXJXJXJX",
"JXJXJXJXJXJXJXJXHXJXJXJXJXJXJXJXJXLXGXJXJXuXW T Q ) ) Q S Y ! E L F t F m n n D aXVXHXGXGXVXFXHXJXJXJXJXJXJXJXJXJXJXJXJXJXJXJXJX",
"JXJXJXJXJXJXJXJXGXJXHXJXJXJXJXDXDXcX. cXtXR P / ~ ;X;X! ! ^ Y P T H C d g g e e B W cXJXDXJXJXHXJXJXJXJXJXJXJXJXJXJXJXJXJXJXJXJX",
"JXJXJXJXJXJXJXJXJXGXDXJXJXGXHXGXVX. - A Q A ;X( %X%X%X=X~ ^ / P B Z H H F d d g r g c hXGXJXJXDXJXJXJXJXJXJXJXJXJXJXJXJXJXJXJXJX",
"JXJXJXJXJXJXJXJXJXJXJXJXHXHXJXJXvX- ( T / ;X8X8X9X9X>X;X%XQ U ^ ! U F t t j d y f i 4 % tXSXAXFXJXJXJXJXJXJXJXJXJXJXJXJXJXJXJXJX",
"JXJXJXJXJXJXJXJXGXJXJXJXJXGXGXSXwX( P Q ,XeXwXtX9X9X9XeX;X~ E E L L L F s d e d 4 4 6 u % &XFXJXJXJXJXJXJXJXJXJXJXJXJXJXJXJXJXJX",
"JXJXJXJXJXJXJXJXJXJXJXDXJXGXBXPXQ D eX>XwXqXtXyXtXtXqXeX,X,X^ Y U Y C C s d a u y u 6 6 6 * 7XFXJXJXJXJXJXJXJXJXJXJXJXJXJXJXJXJX",
"JXJXJXJXJXJXJXJXJXFXGXJXAXHXpXM E ( eXqXwXpXiXiXtXtX0X1X:X-X! ! S A V F j j t u 0 6 8 7 # i = yXJXZXFXGXFXDXJXJXJXJXJXJXJXJXJXJX",
"JXJXJXJXJXJXJXJXHXJXGXHXGX7XR ( ( ;XeXwXpXsXiXiXtXtX0X1X-X! ! Y Y V V F j t u u u 5 , < `.G.$ s.zXGXGXFXJXHXJXJXJXJXJXJXJXJXJXJX",
"JXJXJXJXJXJXJXJXHXJXHXJXpXb Q ( >X;X8XwXiXsXsXiXtXqX1X;X=X! ! U S L V s s u 0 0 y 5 6 : 2 n.< # 3XFXGXDXJXGXJXFXJXJXJXJXJXJXJXJX",
"JXJXJXJXJXJXJXJXFXGXJXPXz N ) R 8XeXwXtXiXiXiXtXqX<X:X%X! U Y U S V j s j a u 5 5 5 8 1 1 1 S.v.%.rXJXDXJXGXGXHXJXJXJXJXJXJXJXJX",
"JXJXJXJXJXJXJXJXJXJXSXW v T S ( >XeX0XtXtXwXwX0X9X:X-X@XU H H H V H j a u h 7 5 7 3 3 m.K.2 K.j.x.s.nXJXJXJXJXHXJXJXJXJXJXJXJXJX",
"JXJXJXJXJXJXJXJXFXJXkXz M B D ,X%X1XqX0X9X9X<X9X:X=XU I J H H G k k h p h 7 7 > 3 : 3 2 K.c.c.x.b.%.2XFXSXFXJXHXJXJXJXJXJXJXJXJX",
"JXJXJXJXJXJXJXJXHXGX8Xv v M Q Q =X;X>X1X<X:X:X:X*X@XI J J G j k k l h 7 9 9 > > 1 1 n.1 1 K.b.L.S.l.;.cXGXFXJXGXJXJXJXJXJXJXJXJX",
"JXJXJXJXJXJXJXJXGXBXW q b M M S ~ ;X:X:X:X1X-X=X*X@XJ J G k j j h h 9 7 3 3 3 > 2 c.m.1 c.L.b.A.C.v.z.gXJXJXCXJXJXJXJXJXJXJXJXJX",
"JXJXJXJXJXJXJXJXHXcXn b b M A T ! *X*X*X-X-X#X#X#XI OXZ l p h h u 7 3 3 2 K.2 1 2 b.b.M.A.C.C.A.D.Z.B.;.SXHXJXJXJXJXJXJXJXJXJXJX",
"JXJXJXJXJXJXJXFXJXkXn v b M A Y S U I %X-X-X-X#XZ oX+X+X{.h h 7 7 7 3 1 2 9 2 2 2 c.C.V.C.A.A.R.T.Z.Z.-.xXJXFXJXJXJXJXJXJXJXJXJX",
"JXJXJXJXJXJXJXJXGXuXX w w P S T U I I @X#X#X-X+XOXOXk {.[.h 7 7 8 3 2 1 2 K.K.2 c.b.C.V.A.A.A.T.T.R.Z.=.4XGXFXGXJXJXJXJXJXJXJXJX",
"JXJXJXJXJXJXJXJXGX7Xq w m T Z F I I I #X#X#X#X-XOX+X'.[.h 9 9 3 K.2 c.c.2 c.c.c.c.C.V.Z.A.A.T.E.E.).Q.I.i.SXFXJXJXJXJXJXJXJXJXJX",
"JXJXJXJXJXJXGXJXGX7Xq w t F V G G J J OXOXOX+X#X+X{.p 8 G.9 2 2 c.b.K.b.c.c.b.b.C.A.A.Z.R.Z.P.U.U.E.~.!.5.nXFXJXJXJXJXJXJXJXJXJX",
"JXJXJXJXJXJXJXHXGX7Xq e t t f j G G K +X+X+X+X+X+X'.`.[.m.K.m.2 c.b.C.b.S.S.S.A.C.R.Z.Z.T.P.P.I.~.~.~.~.0.gXFXJXJXJXJXJXJXJXJXJX",
"JXJXJXJXJXJXJXJXJXuXX e 0 j f j k k k +X+XXXXXXX'.'.`.`.[.m.m.x.b.b.C.L.H.H.R.R.R.R.T.P.R.T.P.I.~.!.!.!.w.5XGXJXJXJXJXJXJXJXJXJX",
"JXJXJXJXJXJXJXJXJXuXX e 0 e d l k l f '.+X'.XXXX'.`.`.G.G.m.n.m.b.v.K.H.H._.Q.R.R.E.R.T.W.E.Y.!.Y.!.!.!.i.}.GXFXJXJXJXJXJXJXJXJX",
"JXJXJXJXJXJXJXJXGXvX& X y r u u p f i f oXXXoXoXoX'.`.`.G.F.G.z.J.J.S.H.H.H._._.Q.Q.Q.Y.).Y.~.Y.!.q.y.y.0.p.CXJXJXJXJXJXJXJXJXJX",
"JXJXJXJXJXJXJXJXJXMXz r o 0 u y i i f f '.oX].'.'.`.`.G.J.J.M.M.N.V.D.D._.Q.Q.Q.).).).).Y./.~.I.!.!.y.y.q.p.MXJXGXJXJXJXJXJXJXJX",
"JXJXJXJXJXJXJXJXGXFXx r ; 4 y y i i i f f '.'.`.J.G.G.M.M.v.M.V.V.V.A.R.R.W.E.).(.).).(.~.~.!.I.!.y.y.w.0.8.nXJXJXJXJXJXJXJXJXJX",
"JXJXJXJXJXJXJXJXJXDXrX& ; o $ 0 4 * i i `.`.`.G.n.z.x.v.V.v.v.V.Z.A.A.R.R.W.E.E.^.(.(.(.^.^.!.!.y.!.t.t.0.8.NXJXJXJXJXJXJXJXJXJX",
"JXJXJXJXJXJXJXJXJXHXbX& ; o $ 4 6 4 6 6 8 G.G.G.M.x.v.M.V.V.V.V.Z.A.R.R.R.W.E.E.~.^.^.^.^.^././.y.y.t.7.6.8.bXJXJXJXJXJXJXJXJXJX",
"JXJXJXJXJXJXJXJXJXJXSX.Xo + $ 4 6 , + 6 6 z.z.l.v.v.v.v.V.V.C.D.V.R.R.R.W.W.(.~.~.^.^.~./././.y./.u.t.7.8.2.NXJXJXJXJXJXJXJXJXJX",
"JXJXJXJXJXJXJXJXJXJXGXkX% , + : + , 6 6 < n.x.b.v.v.V.v.V.V.V.Z.Z.R.R.W.E.(.(.^.!.^.!./.y.y.y.t.y.u.e.r.,.3.MXGXJXJXJXJXJXJXJXJX",
"JXJXJXJXJXJXJXJXJXGXHXCXD o + + , , , , < < v.C.C.V.V.V.V.Z.A.R.T.W.W.E.E.~.(.~./.^.^.y.y.y.t.t.y.t.r.7.O.p.ZXJXJXJXJXJXJXJXJXJX",
"JXJXJXJXJXJXJXJXHXKXJXJXlXo : 6 < # # # < j.V.D.V.V.V.A.A.Z.T.T.E.W.E.(.(.~.~.~././.y.u.u.t.t.t.t.u.e.1.3.f.GXJXJXJXJXJXJXJXJXJX",
"JXJXJXJXJXJXJXJXJXFXJXGXZX&Xo < + # %.# # V.N.Z.V.V.C.V.Z.Z.T.Y.E.E.(.(.~.~.!.!.y.y.y.u.t.t.t.t.u.t.6.<.<.|.JXHXJXJXJXJXJXJXJXJX",
"JXJXJXJXJXJXJXJXGXFXFXGXDXmX= + z.+ # z.$.k.Z.k.Z.V.Z.Z.Z.P.T.E.U.E.(.~.~.!.!.!.y.y.t.e.e.t.e.t.u.r.1.<.>.fXFXGXJXJXJXJXJXJXJXJX",
"JXJXJXJXJXJXJXJXDXJXFXJXHXHXhX+ < k.# k.B.*.D.k.B.Z.Z.Z.P.T.E.E.~.~.~.~.!.y.y.y.u.t.e.e.6.e.6.6.6.r.1.>.>.bXFXJXJXJXJXJXJXJXJXJX",
"JXJXJXJXJXJXJXJXJXJXJXFXDXHXCX&XO z.l.# B.B.%.z.N.B.P.T.P.U.U.E.U.!.!.!.y.y.u.t.t.t.7.6.6.6.r.6.<.3.3.] f.JXZXJXJXJXJXJXJXJXJXJX",
"JXJXJXJXJXJXJXJXJXKXJXFXDXDXFXBX].$ k.l.%.B.$.N.B.B.B.I.P.U.U.U.I.I.I.!.y.y.t.t.t.5.6.6.1.r.1.1.<.>.4.` gXJXHXJXJXJXJXJXJXJXJXJX",
"JXJXJXJXJXJXJXJXJXFXJXDXJXJXGXJXlXd.# B.%.-.-.%.-.=.B.9.9.q.I.I.I.!.y.y.y.u.0.0.e.7.6.1.1.<.<.,.4.[ ] g.NXJXJXJXJXJXJXJXJXJXJXJX",
"JXJXJXJXJXJXJXJXJXFXCXHXGXGXJXAXJXlXs.@ -.*.;.%.-.-.=.=.9.9.9.I.I.I.!.!.y.y.0.e.t.r.6.1.1.<.>.>.[ [ ` 4XHXFXJXFXJXJXJXJXJXJXJXJX",
"JXJXJXJXJXJXJXJXJXJXJXJXJXJXJXJXAXJXlXd.@ $.*.*.;.-.=.=.9.9.w.w.q.q.y.t.t.e.6.6.2.<.<.<.>.>.X.4.4.` |.AXGXJXCXHXJXJXJXJXJXJXJXJX",
"JXJXJXJXJXJXJXJXJXJXJXJXJXJXJXJXCXFXSXvXd.#.B.$ &.&.*.-.;.;.w.q.0.0.5.8.8.8.8.,...<.<.2.>.4.[ [ ] f.bXHXJXCXJXJXJXJXJXJXJXJXJXJX",
"JXJXJXJXJXJXJXJXJXJXJXJXJXJXJXJXJXDXKXJXMX|.O ;.#.*.*.=.=.&.&.5.&.8.&.8.8.2.O.2.3.>. .] ] X.4.4.g.zXJXFXCXCXJXJXJXJXJXJXJXJXJXJX",
"JXJXJXJXJXJXJXJXJXJXJXJXJXJXJXJXGXFXDXZXFXGXyX#.#.} } #.&.&.O.&.&.O.O.O.,.O... .....4.+.+.+.4.3.xXFXJXLXFXJXGXFXJXJXJXJXJXJXJXJX",
"JXJXJXJXJXJXJXJXJXJXJXJXJXJXJXJXJXKXJXJXGXJXFXzX|.:.O } O.&.O.} 2.O.| | ] o.X.o.+.' ] >.] {  XxXJXJXFXFXJXJXGXFXJXJXJXJXJXJXJXJX",
"JXJXJXJXJXJXJXJXJXJXJXJXJXJXJXJXJXFXJXGXJXJXDXHXGXvX X+.    @.@.@.| o.| { ` { [   ' ` ` f.xXDXDXJXFXJXJXGXJXFXJXJXJXJXJXJXJXJXJX",
"JXJXJXJXJXJXJXJXJXJXJXJXJXJXJXJXJXFXCXJXGXJXFXKXGXJXJXmXjX Xa._   ' '       _ _ { a.dXNXJXJXHXJXJXJXJXGXJXFXJXJXJXJXJXJXJXJXJXJX",
"JXJXJXJXJXJXJXJXJXJXJXJXJXJXJXJXDXJXJXJXDXJXGXFXDXFXFXJXGXJXMXbXjXfXdX X6X6XfXjXLXCXFXHXJXJXGXJXDXJXFXJXJXJXFXJXJXJXJXJXJXJXJXJX",
"JXJXJXJXJXJXJXJXJXJXJXJXJXJXJXJXJXJXJXJXJXJXJXJXJXJXJXJXJXJXJXJXJXJXJXJXJXJXJXJXJXJXJXJXJXJXJXJXJXJXJXJXJXJXJXJXJXJXJXJXJXJXJXJX",
"JXJXJXJXJXJXJXJXJXJXJXJXJXJXJXJXJXJXJXJXJXJXJXJXJXJXJXJXJXJXJXJXJXJXJXJXJXFXJXGXJXJXJXJXJXJXJXJXJXJXJXJXJXJXJXJXJXJXJXJXJXJXJXJX",
"JXJXJXJXJXJXJXJXJXJXJXJXJXJXJXJXJXJXJXJXJXJXJXJXJXJXJXJXJXJXJXJXGXJXJXJXJXJXJXJXJXJXJXJXJXJXJXJXJXJXJXJXJXJXJXJXJXJXJXJXJXJXJXJX",
"JXJXJXJXJXJXJXJXJXJXJXJXJXJXJXJXJXJXJXJXJXJXJXJXJXJXJXJXJXJXJXJXJXJXJXJXJXJXJXJXJXJXJXJXJXJXJXJXJXJXJXJXJXJXJXJXJXJXJXJXJXJXJXJX",
"JXJXJXJXJXJXJXJXJXJXJXJXJXJXJXJXJXJXJXJXJXJXJXJXJXJXJXJXJXJXJXJXJXJXJXJXJXJXJXJXJXJXJXJXJXJXJXJXJXJXJXJXJXJXJXJXJXJXJXJXJXJXJXJX",
"JXJXJXJXJXJXJXJXJXJXJXJXJXJXJXJXJXJXJXJXJXJXJXJXJXJXJXJXJXJXJXJXJXJXJXJXJXJXJXJXJXJXJXJXJXJXJXJXJXJXJXJXJXJXJXJXJXJXJXJXJXJXJXJX",
"JXJXJXJXJXJXJXJXJXJXJXJXJXJXJXJXJXJXJXJXJXJXJXJXJXJXJXJXJXJXJXJXJXJXJXJXJXJXJXJXJXJXJXJXJXJXJXJXJXJXJXJXJXJXJXJXJXJXJXJXJXJXJXJX",
"JXJXJXJXJXJXJXJXJXJXJXJXJXJXJXJXJXJXJXJXJXJXJXJXJXJXJXJXJXJXJXJXJXJXJXJXJXJXJXJXJXJXJXJXJXJXJXJXJXJXJXJXJXJXJXJXJXJXJXJXJXJXJXJX"
};
