/* XPM */
static char *art_orange_de_pixel_1064030351680870262[] = {
/* columns rows colors chars-per-pixel */
"64 64 239 2 ",
"   c #010201",
".  c #010C01",
"X  c #0C0705",
"o  c #140100",
"O  c #1C0100",
"+  c #100800",
"@  c #001200",
"#  c #071906",
"$  c #13110C",
"%  c #191919",
"&  c #240100",
"*  c #2B0100",
"=  c #280B00",
"-  c #330000",
";  c #3A0100",
":  c #2C1002",
">  c #072604",
",  c #1B3518",
"<  c #122F0F",
"1  c #382101",
"2  c #2C3129",
"3  c #440000",
"4  c #4C0200",
"5  c #510700",
"6  c #441802",
"7  c #411C13",
"8  c #610600",
"9  c #4B2C17",
"0  c #7C3200",
"q  c #76381A",
"w  c #742F15",
"e  c #4B382C",
"r  c #573729",
"t  c #483D3A",
"y  c #57352C",
"u  c #633C23",
"i  c #7A3826",
"p  c #244C1C",
"a  c #2D4728",
"s  c #365A2C",
"d  c #3A5737",
"f  c #335226",
"g  c #386D2D",
"h  c #1F5315",
"j  c #64401E",
"k  c #58473E",
"l  c #534F34",
"z  c #6A5436",
"x  c #714B31",
"c  c #426C38",
"v  c #447939",
"b  c #3C4041",
"n  c #574945",
"m  c #435941",
"M  c #585A5B",
"N  c #52504B",
"B  c #65564C",
"V  c #645C57",
"C  c #765447",
"Z  c #4F7A44",
"A  c #5D625B",
"S  c #52704B",
"D  c #68655B",
"F  c #7A6758",
"G  c #7A7259",
"H  c #707054",
"J  c #5C6264",
"K  c #666865",
"L  c #726864",
"P  c #777976",
"I  c #797369",
"U  c #8A3507",
"Y  c #9C3C0A",
"T  c #8C3815",
"R  c #A33A06",
"E  c #B43C00",
"W  c #A33A15",
"Q  c #833C24",
"!  c #9A4919",
"~  c #944812",
"^  c #B94C00",
"/  c #B14D16",
"(  c #AD631E",
")  c #B26216",
"_  c #874924",
"`  c #984724",
"'  c #9C532A",
"]  c #875735",
"[  c #8F552A",
"{  c #A94A26",
"}  c #B35727",
"|  c #B85836",
" . c #AB552C",
".. c #9E652F",
"X. c #AB6629",
"o. c #B16732",
"O. c #DD4D00",
"+. c #CF530E",
"@. c #D75809",
"#. c #C85516",
"$. c #DB5718",
"%. c #CE4A0C",
"&. c #EA4D00",
"*. c #E64C00",
"=. c #F14D00",
"-. c #E35301",
";. c #ED5401",
":. c #EC5C02",
">. c #EC5C0B",
",. c #E7590C",
"<. c #F35500",
"1. c #FD5401",
"2. c #F45C02",
"3. c #FC5D02",
"4. c #F35E0B",
"5. c #FD5C0B",
"6. c #FB560B",
"7. c #E45B15",
"8. c #E75B15",
"9. c #F85C16",
"0. c #DB620C",
"q. c #DA6A16",
"w. c #ED6505",
"e. c #E56D04",
"r. c #EB6B00",
"t. c #EC6A0B",
"y. c #E46409",
"u. c #F56403",
"i. c #FD6203",
"p. c #F56803",
"a. c #FC6A04",
"s. c #F5630B",
"d. c #FC640A",
"f. c #F46B0D",
"g. c #FD6B0B",
"h. c #E87108",
"j. c #FF7409",
"k. c #E96717",
"l. c #FC6412",
"z. c #F46B13",
"x. c #FD6C12",
"c. c #FD651A",
"v. c #F76718",
"b. c #FF7414",
"n. c #FE751A",
"m. c #F87315",
"M. c #EB741A",
"N. c #C85A26",
"B. c #D55A27",
"V. c #D75C33",
"C. c #E75B23",
"Z. c #D76727",
"A. c #C8683A",
"S. c #D56936",
"D. c #C57438",
"F. c #D57739",
"G. c #D46F2B",
"H. c #E56A24",
"J. c #F46222",
"K. c #FA6822",
"L. c #F87524",
"P. c #E46F35",
"I. c #855F52",
"U. c #A75F46",
"Y. c #8F6754",
"T. c #AE6E4A",
"R. c #84716B",
"E. c #917872",
"W. c #82706E",
"Q. c #CB7A4C",
"!. c #E17642",
"~. c #4B873F",
"^. c #528748",
"/. c #7D8A79",
"(. c #71886C",
"). c #79AA6C",
"_. c #FF8D2C",
"`. c #FB8D35",
"'. c #F7913C",
"]. c #8D897A",
"[. c #A8927B",
"{. c #F59758",
"}. c #F39349",
"|. c #D59E68",
" X c #7F7880",
".X c #8A7F85",
"XX c #78868D",
"oX c #898385",
"OX c #999895",
"+X c #8B9589",
"@X c #A7988E",
"#X c #A9898C",
"$X c #96A491",
"%X c #A4A69A",
"&X c #A8B6A7",
"*X c #B0B1B3",
"=X c #9BA9AA",
"-X c #DEDEDB",
";X c #EDD8D7",
":X c #E7E5D8",
">X c #F4EBDB",
",X c #FBF7DE",
"<X c #F6EAD5",
"1X c #DBDFE8",
"2X c #DCF4FF",
"3X c #D7EAE4",
"4X c #EEECEC",
"5X c #E6E6E3",
"6X c #FDEFE3",
"7X c #F3ECED",
"8X c #FCEEEB",
"9X c #F3EBE4",
"0X c #ECF5E4",
"qX c #ECF4EC",
"wX c #E8F8E9",
"eX c #FCF3E4",
"rX c #F4F4EC",
"tX c #FDF4EC",
"yX c #F3FCEC",
"uX c #FEFBED",
"iX c #FCFAE4",
"pX c #EBECF2",
"aX c #EBEFFB",
"sX c #F4ECF4",
"dX c #FDEFF7",
"fX c #EDF3F3",
"gX c #EBFCF4",
"hX c #E4FEFE",
"jX c #EDFDFE",
"kX c #E7F8F0",
"lX c #F5F4F4",
"zX c #FDF5F3",
"xX c #F5FBF4",
"cX c #FDFDF4",
"vX c #FDF4FC",
"bX c #F5FEFE",
"nX c #FEFEFE",
"mX c #F3F5FC",
"MX c #E0DFD9",
/* pixels */
"nXnXnXnXnXnXnXnXnXnXnXnXnXnXnXnXnXnXnXnXnXnXnXnXnXnXnXnXnXnXnXnXxXxXxXbXyXnXnXnXvXnXvXnXlX0XyX0XcXnXnXnXnXnXnXnXnXnXnXnXnXnXnXnX",
"nXnXnXnXnXnXnXnXnXnXnXnXnXnXnXnXnXnXnXnXnXnXnXnXnXnXnXnXnXnXnXnXmXnXlXqXxXxX7XnXsXvXvXvXnXcXyXyXnXnXnXnXnXnXnXnXnXnXnXnXnXnXnXnX",
"nXnXnXnXnXnXnXnXnXnXnXnXnXnXnXnXnXnXnXnXnXnXnXnXnXnXnXnXnXnXnXnXnXzXxXbXcXcXnXlXvXvXvXsXnXcX0XyXnXnXnXnXnXnXnXnXnXnXnXnXnXnXnXnX",
"nXnXnXnXnXnXnXnXnXnXnXnXnXnXnXnXnXnXnXnXnXnXnXnXnXnXnXnXnXnXnXnXsXnXnXcXbXyXxXnXnXnXvXvXnXnXlXnXnXnXnXnXnXnXnXnXnXnXnXnXnXnXnXnX",
"nXnXnXnXnXnXnXnXnXnXnXnXnXnXnXnXnXnXnXnXnXnXnXnXnXnXnXnXnXnXnXnXvXnX0X5XxXyXwXyXxXxXnXvXdXvXnXnXnXnXnXnXnXnXnXnXnXnXnXnXnXnXnXnX",
"nXnXnXnXnXnXnXnXnXnXnXnXnXnXnXnXnXnXnXnXnXnXnXnXnXnXnXnXnXnXnXnXnX7XnX0X/./.].(.].XXoXoX X*XvXnXnXnXnXnXnXnXnXnXnXnXnXnXnXnXnXnX",
"nXnXnXnXnXnXnXnXnXnXnXnXnXnXnXnXnXnXnXnXnXnXnXnXnXnXnXnXnXnXnXnXvX7XcX3X> > > > @ @   X   M vXnXnXnXnXnXnXnXnXnXnXnXnXnXnXnXnXnX",
"nXnXnXnXnXnXnXnXnXnXnXnXnXnXnXnXnXnXnXnXnXnXnXnXnXnXnXnXnXnXnXnXnXrX].S s g < h a a , 2   N nXvXnXnXnXnXnXnXnXnXnXnXnXnXnXnXnXnX",
"nXnXnXnXnXnXnXnXnXnXnXnXnXnXnXnXnXnXnXnXnXnXnXnXlXnXnXnXnXnXfXnXnX0X@ > ).).v ~.^.^.m m . b nXnXnXnXnXnXnXnXnXnXnXnXnXnXnXnXnXnX",
"nXnXnXnXnXnXnXnXnXnXnXnXnXnXnXnXnXnXnXnXnXnXnXnXnXnXlXcXP P nXlXP A a f ^.^.~.v s s < b $X*X5XmXnXnXnXnXnXnXnXnXnXnXnXnXnXnXnXnX",
"nXnXnXnXnXnXnXnXnXnXnXnXnXnXnXnXnXnXnXnXnXnXnXnXnXvXnXlX% % -XlX$ . S Z ^.~.g g v s @ a gXcXqXcXnXnXnXnXnXnXnXnXnXnXnXnXnXnXnXnX",
"nXnXnXnXnXnXnXnXnXnXnXnXnXnXnXnXnXnXnXnXnXnXnXnXnX4XnXlXOXOXK K @   S c v g h g > p +X&XxXxXxXnXnXnXnXnXnXnXnXnXnXnXnXnXnXnXnXnX",
"nXnXnXnXnXnXnXnXnXnXnXnXnXnXnXnXnXnXnXnXnXnXnXnXnXlXnXcXnXlX%   . @ a m a f h < @ d xXnXcXqXnXrXnXnXnXnXnXnXnXnXnXnXnXnXnXnXnXnX",
"nXnXnXnXnXnXnXnXnXnXnXnXnXnXnXnXnXnXnXnXnXnXnXnXmXnXnXnXnX5X% $ OX+X, , < < > < &X%XlXlXnXnXnXcXnXnXnXnXnXnXnXnXnXnXnXnXnXnXnXnX",
"nXnXnXnXnXnXnXnXnXnXnXnXnXnXnXnXnXnXnXnXnXnXnXnXmXcX4XnXnXlX2   nXxX<   @ > . 2 nXlXnXvXvXzX9XnXnXnXnXnXnXnXnXnXnXnXnXnXnXnXnXnX",
"nXnXnXnXnXnXnXnXnXnXnXnXnXnXnXnXnXnXnXnXnXnXnXnXnXnXnXaXmXfXX $ -XnX=X&X&X$X&X*XnXsXvXdXvXnX7XzXnXnXnXnXnXnXnXnXnXnXnXnXnXnXnXnX",
"nXnXnXnXnXnXnXnXnXcXcXnXnXbXnXnXcX:XnXnXnXnXuXcXrXcXnXaXnXpX$ X 9XnXyXxX0XyX5XbXnXvXdXmXnXuX0XyXcXnXnXnXnXnXnXvXnXnXnXcXnXcXbXbX",
"nXnXnXnXnXnXnXnXbXcXnXbXnXnXnXbXlXnXsXfXvXnXcXrXzX>XM t N N $ o n n n l a N xXxXpXnXnXvXnXuXiX:XcXbXnXnXnXnXnXnXnXnXnXnXbXbXbXbX",
"nXnXnXnXnXnXcXnXnXnXbXnXbXbXnXnXmXnXfXnXfXcXzXcXiX<X9 : & o = o * * * - & 1 iXiXnXlXnXpXnX7XnXcXnXnXbXnXnXnXnXvXnXnXnXnXnXbXcXbX",
"nXnXnXnXnXnXcXnXcXnXcXbXnXnXnXnXnXpXxXbXbXnXL y w j ~ X...[ 6 * Q ` ! ` _ _ x j e V nXnXnXnX;XvXnXbXnXnXnXnXnXnXnXnXnXnXnXcXbXnX",
"nXnXnXnXnXnXnXcXnXcXnXnXnXnXnXnXnXnXjXfXgXrXe * 3 5 H.'.G.D.5 4 | G.Z.V.N.N.4 ; * 9 rXzXvXnXvXvXnXbXnXnXnXnXnXnXnXnXnXnXnXbXnXbX",
"nXnXnXnXnXcXnXnXcXcXnXnXnXnXnXnX5XmXcXnXI e Y.T.{ ^ k.t.e.P./ } #.+.+.@.7.7.#.N.o.] r R.zXvXvXvXnXbXbXnXnXnXnXnXnXvXnXnXnXnXnXnX",
"nXnXcXnXnXnXnXcXnXnXnXnXnXnXnXnXnXzXnX8Xn & T.{.L.t.s.l.m.k.H.q.@.y.n.n.l.&.9.$.N.{ - x 6XzXnXnXbXnXbXcXnXcXnXnXnXvXnXnXnXnXnXnX",
"nXcXnXnXcXcXnXnXnXnXnXnXnXnXnXnXuXeXI.7 Y.Q.G.q.t.u.<.2.9.4.f.f.y.y.w.;.1.6.1.9.J.V.} ` 6 H xXyXbXcXnXnXnXnXnXbXnXnXnXnXnXnXnXnX",
"cXcXnXcXnXcXnXcXnXnXnX5XnXnXlXcX,X,Xj ; Q.}.k.t.:.u.*.*.c.x.2.i.p.p.u.p.u.i.3.5.6.J.$.{ ; x ,XyXzXbXnXcX5XnXnX5XnXnXvXnXnXnXvXnX",
"cXnXbXnXcXnXnXnXnXlXlXnXcXzXzXzXI.6 ] }.Z.m.-.u.b.n.s.>.l.i.1.3.3.u.p.p.w.u.i.3.=.c.J.B.} x 1 G cXrX9XnXxXlXlXnXnXnXnXnXnXnXnXnX",
"cXbXcXnXnXnXnXnXcXcX7XzXrXnXcXeXr - D.}.w.a.&.<.n.L.v.t.g.i.1.3.1.3.3.p.e.e.r.p.b.<.9.7.H.! * j ,XzXnXcXnXrXlXlXnXnXnXnXnXnXnXvX",
"nXnXnXbXnXnXnXnXnXnXzXcXzXtXD = T.Q.q.y.a.j.i.<.9.l.k.z.b.j.i.3.1.1.5.w.e.e.e.r.i.;.<.n.k.#.} _ : L 8XzXnXnXnXcXnXnXnXnXnXnXnXnX",
"bXnXnXbXnXnXnXnXlXzXzXnXcXcXn = ..}.q.h.j.a.b.1.9.4.s.f.b.b.a.1.1.1.5.f.h.h.0.r.:.b.<.5.J.C.P.` * n vXzXnXnXzXlXnXnXbXnXnXnXnXmX",
"nXbXnXbXnXnXvXnXnXnXcX:X>XuXB O ~ Z.0.@.p.i.d.d.6.;.:.s.p.a.g.i.3.1.5.d.z.h.t.r.a.a.3.*.c.J.%.W * B nXzX7XzXnXcXnXbXnXnXnXnXnXnX",
"nXnXnXnXnXnXnXnXlXzXnXcXeX>XG & ) M.@.%.>.v.2.d.;.;.2.s.w.u.g.p.i.i.d.l.l.d.s.i.i.*.g.d.K.J.$.W - W.9X8XnXtXcXnXbXnXnXbXbXnXbXnX",
"bXbXbXnXnXnXnXnXnX7XzXcXD + z |.q.y.,.L.M.>.b.u.2.u.n.n.s.u.p.p.p.i.g.l.l.l.d.i.i.i.d.<.l.,.J.V.U.x O V nXnXmXcXbXnXnXnXnXbXnXbX",
"bXjXbXcXcXzXzXnXvXnXnXcXJ o ..}.k.:.f.x.z.f.g.a.p.b.n.n.g.u.p.a.p.p.g.g.d.d.d.l.5.i.d.i.s.d.s.k.V._ O M mXnXbXcXcXcXzXzXcXnXnXbX",
"jXbXbXcXuXiXzXvXzXnXnXbXJ o X.`.n.x.b.n.x.u.:.-.u.a.g.u.u.u.u.a.p.p.p.p.s.d.d.d.5.i.d.3.5.d.i.:.$.~ & A bXbXxXcXcXcXzXzXcXnXbXbX",
"bXbXbXcXuXuXnXnXnXnXnXmXK o ( `.t.f.x.n.x.u.w.-.u.u.u.u.a.g.i.u.p.p.p.u.i.d.d.d.5.5.5.i.i.a.3.>.7.Y & J mXbXxXcXcXcXzXzXcXnXnXbX",
"bXnXnXnXzXzXnXnXnXnXnXcXK o ( _.O.*.u.g.s.i.u.2.d.u.i.g.b.b.g.i.i.p.u.i.u.i.d.5.5.d.i.i.i.i.i.2.7.Y & D nXbXbXbXbXcXzXvXcXcXnXbX",
"nXnXnXnXcXzXnXbXcXcXnXzXD o ) _.w.:.2.u.2.u.d.g.d.i.2.a.b.b.g.u.u.u.u.a.i.i.i.5.5.i.i.3.5.i.i.:.>.R * V nXvXxXcXbXnXnXvXcXcXnXbX",
"nXnXnXnXzXnXnXbXnXnXcXzXD O ) _.z.u.d.d.u.d.n.n.d.2.;.;.3.g.i.i.i.a.i.i.i.i.3.i.3.i.i.5.i.d.i.2.>.R - V vXnXxXbXbXbXvXvXcXcXbXnX",
"nXnXnXnXnXnXbXbXnXnXcXzXD O ) _.f.s.d.g.2.i.b.b.g.1.<.<.1.i.3.i.a.i.i.i.i.i.i.i.3.3.5.i.i.i.i.2.7.R - V nXnXmXbXbXbXvXcXcXcXcXnX",
"zXvXnXnXnXnXbXbXbXcXcXuXD O ) _.z.u.g.s.;.;.<.1.d.a.5.i.5.a.i.i.a.i.i.i.i.i.i.i.3.i.i.3.i.d.3.2.,.R * V vXvXcXbXbXbXnXnXxXcXcXcX",
"zXnXnXnXnXnXjXjXnXnXuXeXK O ( `.m.-.g.s.;.2.<.i.i.5.3.3.3.i.i.i.i.i.i.i.i.i.3.3.3.1.a.d.i.5.i.>.7.W & W.vXvXnXxXjXbXnXnXcXcXcXcX",
"zXzXnXnXnXnXbXjXcXcXiX9XA o X.}.y.O.u.d.2.i.3.5.d.i.i.5.5.i.i.3.i.i.i.i.3.i.i.i.i.3.i.d.2.2.d.>.$.! & D 7XvXcXnXjXbXvXnXbXcXcXcX",
"zXnXnXnXnXnXbXjXlXcXuXcXK + ..}.0.-.u.s.3.d.i.d.1.3.3.3.i.3.3.i.i.i.i.i.i.i.i.i.i.3.i.i.2.d.d.8.N.` o P nXnXnXyXbXbXnXnXbXcXcXcX",
"zXnXnXmXnXbXbXbXnXiX>XrXA   ] {.k.t.s.u.2.d.d.i.=.<.1.3.i.i.i.i.i.i.i.i.i.i.i.i.i.3.5.d.d.l.l.7.A.q X J sX7XzXcXbXbXnXnXcXcXcXcX",
"zXnXnXbXbXnXbXbXeXtXuXnX Xd I.D.0.t.s.2.u.3.d.5.=.1.1.5.i.i.i.i.i.i.i.i.i.i.i.i.i.i.5.d.s.l.>.+.} x t XXnXnXzX:XbXnXvXnXbXxXnXcX",
"nXnXbXbXnXbXbXnXcX,X>XnXhXjXY.; ^ w.w.t.d.d.i.3.1.3.a.i.3.i.i.i.i.a.i.i.i.i.i.i.i.2.d.s.4.4.*.E 3 Y.aXjXmX7XuXcXnXnXvXnXnXbXcXnX",
"zXnXbXbXcXbXbXcX>XiXuXnX2XjXB ; ^ M.t.u.u.:.5.3.d.d.i.3.2.2.i.i.i.u.i.i.i.i.i.i.i.i.u.s.4.4.-.E 5 C bX2XmXnXtX>XnXnXvXnXnXxXnXnX",
"cXnXnXbXbXnXbXnXuXeXcXmXjXbXk - } `.L.y.;.;.1.i.i.d.i.2.;.<.1.i.u.i.u.i.i.u.i.i.i.i.s.4.k.k.$./ ; t bXjXmXnX6XuXnXnXnXnXnXnXnXnX",
"nXnXnXnXnXnXnXnXnXcXlXnXnXfXOXe [ o.S.$.c.&.=.x.i.p.f.f.:.-.i.3.6.9.d.x.i.u.a.i.a.1.l.K.#.Z.^ ' r OXfXnXnXcXnXnXnXnXnXnXnXnXnXnX",
"nXnXnXnXnXnXnXnXcXnXnXlXsXnXnXtXz & ' !.7.n.5.1.a.w.w.t.p.d.g.3.l.c.s.d.u.3.i.3.<.c.c.J.S.U * u zXnXcXlXlXnXnXlXnXnXnXnXnXnXnXnX",
"nXnXnXnXnXnXnXnXlXnXnXnXnXcXnXnXOXF ] ! B.>.a.3.i.1.u.a.d.d.d.1.i.3.3.3.3.i.1.3.5.c.$.W ! _ z [.cXnXnXmXnXnXnXlXnXnXnXnXnXnXnXnX",
"nXnXnXnXnXnXnXnXnXnXlXnXnXnXnXxXpXyXr & A.Z.v.2.&.&.i.d.5.5.5.6.3.2.i.3.3.i.1.6.9.C.!.W ; u <XrXlXnXnXnXvXlXlXnXnXnXnXnXnXnXnXnX",
"nXnXnXnXnXnXnXnXnXcXnXnXnXvXnXnXjXjX$Xx _ ~ q.k.>.;.6.6.6.l.6.3.i.i.a.3.i.d.&.9.C.N.T Q C ].cXkXnXnXnXnXnXcXnXnXnXnXnXnXnXnXnXnX",
"nXnXnXnXnXnXnXnXlXnXnXnXnXlXfXfXbXhXcX,Xj * X.F.P.$.J.9.9.c.<.&.3.i.a.:.t.J.+.S.V.{ ; y zXzXbXgXfXlXlXnXnXnXnXlXnXnXnXnXnXnXnXnX",
"nXnXnXnXnXnXnXnXnXnXlXlXnXnXnXnXxXxXwXuX$Xz x x { W V.V.8.J.*.*.;.;.4.+.Z.Z.U T q x I.E.nXlX1XnXnXnXnXnXlXcXnXnXnXnXnXnXnXnXnXnX",
"nXnXnXnXnXnXnXnXlXnXnXnXnXnXnXlXcXrXxXwXgXcX2 o & 5 | A.V.Z.#.q.$.B.S.N.D.' ; & O 9 zXdXsXnXnXvXmXnXnXcXnXnXnXlXnXnXnXnXnXnXnXnX",
"nXnXnXnXnXnXnXnXnXnXnXnXnXnXnXnXnXtXlXbXjX3X=XP E..Xi w T T 0 0 U w T w u u [.F I %X-XcXnXvXvXnXnXnXnXnXnXnXnXnXnXnXnXnXnXnXnXnX",
"nXnXnXnXnXnXnXnXnXnXnXnXnXnXnXnX8X8XzXbXbXhXbXmXdX;Xy * O * = = * * * O & e ;XvXcXzXnXnXnXzXzXtXnXnXnXnXnXnXnXnXnXnXnXnXnXnXnXnX",
"nXnXnXnXnXnXnXnXnXnXnXnXnXnXnXnXvXnXnXbXjXjXmXnXvX8X#XE.].oX].P P W.OXoX.XOXzXvXnXnXlXrXcXcXcXcXnXnXnXnXnXnXnXnXnXnXnXnXnXnXnXnX",
"nXnXnXnXnXnXnXnXnXnXnXnXnXnXnXnXnXnXnXnXnXnXvXrX;XzX6XzXnXjXhXhXhXhXjXbXvXsXvX;XvXzXnXnXnXcXcXnXnXnXnXnXnXnXnXnXnXnXnXnXnXnXnXnX",
"nXnXnXnXnXnXnXnXnXnXnXnXnXnXnXnXnXnXmXnXnXnXnXnXzXcXuXtXbXjXhXhX2X2XbXnXnXdXvXvXnXnXnXnXxXlXnXnXnXnXnXnXnXnXnXnXnXnXnXnXnXnXnXnX",
"nXnXnXnXnXnXnXnXnXnXnXnXnXnXnXnXxXcXnXnXdXdXdXzXtXiXuX0XnXjXhXhXhXgXbXnXdXdXzXzXcXlXqXgXbXnXnXnXnXnXnXnXnXnXnXnXnXnXnXnXnXnXnXnX",
"nXnXnXnXnXnXnXnXnXnXnXnXnXnXnXnX,XiXcXnXnXvXnXnXcXyXcX0XuXrXnXnXnXcXuXtXtXzXtXzXxXxXgXbXnXnXdXsXnXnXnXnXnXnXnXnXnXnXnXnXnXnXnXnX",
"nXnXnXnXnXnXnXnXnXnXnXnXnXnXnXcXuXiXeXsXvXnXnXmXbXwXcX0XcXtXtX8XtXiXcXuXtXuXiXuXyXgXgXgXmXmXvXnXnXnXnXnXnXnXnXnXnXnXnXnXnXnXnXnX"
};
