/* XPM */
static char *poire__1_1680869756[] = {
/* columns rows colors chars-per-pixel */
"64 64 140 2 ",
"   c #000100",
".  c #060A01",
"X  c #0A0E03",
"o  c #0E0E0E",
"O  c #0B1204",
"+  c #0E1309",
"@  c #101C04",
"#  c #11170A",
"$  c #141B0C",
"%  c #131313",
"&  c #1E1E1D",
"*  c #17210C",
"=  c #212D13",
"-  c #272727",
";  c #262825",
":  c #292B27",
">  c #2F2F2F",
",  c #2F2F30",
"<  c gray19",
"1  c #383A36",
"2  c #3A3A39",
"3  c #2D4C0A",
"4  c #32540C",
"5  c #35590D",
"6  c #395F0D",
"7  c #3D5B1C",
"8  c #39620C",
"9  c #3D6B0C",
"0  c #3D6214",
"q  c #3F5824",
"w  c #416E0F",
"e  c #43740D",
"r  c #467A0E",
"t  c #497F0F",
"y  c #44661E",
"u  c #44681C",
"i  c #447412",
"p  c #467910",
"a  c #465E2A",
"s  c #4F7726",
"d  c #537B2A",
"f  c #557631",
"g  c #577832",
"h  c #5B7E34",
"j  c #3F3F40",
"k  c #403F40",
"l  c #434443",
"z  c #464843",
"x  c #494C47",
"c  c #474748",
"v  c #4D4D4C",
"b  c #4D5049",
"n  c #52564E",
"m  c #555C4E",
"M  c #555555",
"N  c #565852",
"B  c #585C52",
"V  c #5A5A5A",
"C  c #5F6657",
"Z  c #5E615A",
"A  c #637D47",
"S  c #667E49",
"D  c #61645E",
"F  c #616160",
"G  c #6D6D6D",
"H  c #70716F",
"J  c #737473",
"K  c #797B77",
"L  c #7C7C7B",
"P  c #53940E",
"I  c #4C8311",
"U  c #508A10",
"Y  c #559511",
"T  c #589715",
"R  c #579812",
"E  c #599915",
"W  c #5C9B1A",
"Q  c #609F1D",
"!  c #61A01D",
"~  c #5C9420",
"^  c #639E24",
"/  c #659F28",
"(  c #618637",
")  c #668E3B",
"_  c #6A923D",
"`  c #719D3F",
"'  c #66A424",
"]  c #68A724",
"[  c #6AA926",
"{  c #68A429",
"}  c #6DAC2B",
"|  c #70AF2D",
" . c #71B12E",
".. c #74AF37",
"X. c #76B533",
"o. c #78B735",
"O. c #79B836",
"+. c #77B239",
"@. c #7AB63C",
"#. c #7DBC3A",
"$. c #658342",
"%. c #698E40",
"&. c #67804A",
"*. c #6E9443",
"=. c #729D41",
"-. c #72944A",
";. c #73994A",
":. c #76A543",
">. c #7DAD46",
",. c #7BAB48",
"<. c #7DB641",
"1. c #7FB942",
"2. c #80BF3C",
"3. c #83C23F",
"4. c #81B147",
"5. c #81BC42",
"6. c #82B348",
"7. c #85BA4B",
"8. c #81837E",
"9. c #85C441",
"0. c #8BC34E",
"q. c #90C951",
"w. c #96D352",
"e. c #99D754",
"r. c #9CDC55",
"t. c #9FDF58",
"y. c #9FE058",
"u. c #A1E259",
"i. c #7F7F80",
"p. c #848484",
"a. c #8E8E8E",
"s. c #959595",
"d. c #9A9A9A",
"f. c #A3A3A3",
"g. c LightGray",
"h. c gainsboro",
"j. c #E3E3E3",
"k. c #ECECEC",
"l. c #F4F4F4",
"z. c #FFFFFF",
/* pixels */
"z.z.z.z.z.z.z.z.z.z.z.z.z.z.z.z.z.z.z.z.z.z.z.z.z.z.z.z.z.z.z.z.z.z.z.z.z.z.z.z.z.z.z.z.z.z.z.z.z.z.z.z.z.z.z.z.z.z.z.z.z.z.z.z.",
"z.z.z.z.z.z.z.z.z.z.z.z.z.z.z.z.z.z.z.z.z.z.z.z.z.z.z.z.z.z.z.z.z.z.z.z.z.z.z.z.z.z.z.z.z.z.z.z.z.z.z.z.z.z.z.z.z.z.z.z.z.z.z.z.",
"z.z.z.z.z.z.z.z.z.z.z.z.z.z.z.z.z.z.z.z.z.z.z.z.z.z.z.z.z.z.z.z.z.z.z.z.z.z.z.z.z.z.z.z.z.z.z.z.z.z.z.z.z.z.z.z.z.z.z.z.z.z.z.z.",
"z.z.z.z.z.z.z.z.z.z.z.z.z.z.z.z.z.z.z.z.z.z.z.z.z.z.z.z.z.z.z.z.l.d.a.a.f.l.z.z.z.z.z.z.z.z.z.z.z.z.z.z.z.z.z.z.z.z.z.z.z.z.z.z.",
"z.z.z.z.z.z.z.z.z.z.z.z.z.z.z.z.z.z.z.z.z.z.z.z.z.z.z.z.z.z.z.z.h.&     < k.z.z.z.z.z.z.z.z.z.z.z.z.z.z.z.z.z.z.z.z.z.z.z.z.z.z.",
"z.z.z.z.z.z.z.z.z.z.z.z.z.z.z.z.z.z.z.z.z.z.z.z.z.z.z.z.z.z.l.s.p.p.p.p.d.l.z.z.z.z.z.z.z.z.z.z.z.z.z.z.z.z.z.z.z.z.z.z.z.z.z.z.",
"z.z.z.z.z.z.z.z.z.z.z.z.z.z.z.z.z.z.z.z.z.z.z.z.z.z.z.z.z.z.j.& ; j.z.z.z.z.z.z.z.z.z.z.z.z.z.z.z.z.z.z.z.z.z.z.z.z.z.z.z.z.z.z.",
"z.z.z.z.z.z.z.z.z.z.z.z.z.z.z.z.z.z.z.z.z.z.z.z.z.z.z.z.z.z.j.& & j.z.z.z.z.z.z.z.z.z.z.z.z.z.z.z.z.z.z.z.z.z.z.z.z.z.z.z.z.z.z.",
"z.z.z.z.z.z.z.z.z.z.z.z.z.z.z.z.z.z.z.z.z.z.z.z.z.z.z.z.z.z.j.& & j.z.z.z.z.z.z.z.z.z.z.z.z.z.z.z.z.z.z.z.z.z.z.z.z.z.z.z.z.z.z.",
"z.z.z.z.z.z.z.z.z.z.z.z.z.z.z.z.z.z.z.z.z.z.z.z.z.z.z.z.l.a.F o o F a.l.z.z.z.z.z.z.z.z.z.z.z.z.z.z.z.z.z.z.z.z.z.z.z.z.z.z.z.z.",
"z.z.z.z.z.z.z.z.z.z.z.z.z.z.z.z.z.z.z.z.z.z.z.z.z.z.z.z.j.-         ; j.z.z.z.z.z.z.z.z.z.z.z.z.z.z.z.z.z.z.z.z.z.z.z.z.z.z.z.z.",
"z.z.z.z.z.z.z.z.z.z.z.z.z.z.z.z.z.z.z.z.z.z.z.z.z.z.l.p.D $.f o . 3 7 V i.l.z.z.z.z.z.z.z.z.z.z.z.z.z.z.z.z.z.z.z.z.z.z.z.z.z.z.",
"z.z.z.z.z.z.z.z.z.z.z.z.z.z.z.z.z.z.z.z.z.z.z.z.z.z.k.> + 0.q.$ + I t . > k.z.z.z.z.z.z.z.z.z.z.z.z.z.z.z.z.z.z.z.z.z.z.z.z.z.z.",
"z.z.z.z.z.z.z.z.z.z.z.z.z.z.z.z.z.z.z.z.z.z.z.z.l.p.Z $._ 2.#.d s { ^ 8 7 V p.l.z.z.z.z.z.z.z.z.z.z.z.z.z.z.z.z.z.z.z.z.z.z.z.z.",
"z.z.z.z.z.z.z.z.z.z.z.z.z.z.z.z.z.z.z.z.z.z.z.z.l.2 O 7.r.O.o.O.O.O. .R t . 1 l.z.z.z.z.z.z.z.z.z.z.z.z.z.z.z.z.z.z.z.z.z.z.z.z.",
"z.z.z.z.z.z.z.z.z.z.z.z.z.z.z.z.z.z.z.z.z.z.z.z.k.2 X 7.e.#.X.o.o.o. .Y r . 2 k.z.z.z.z.z.z.z.z.z.z.z.z.z.z.z.z.z.z.z.z.z.z.z.z.",
"z.z.z.z.z.z.z.z.z.z.z.z.z.z.z.z.z.z.z.z.z.z.z.z.k.2 # 7.e.#.X.o.o.o.X.Y r X 2 k.z.z.z.z.z.z.z.z.z.z.z.z.z.z.z.z.z.z.z.z.z.z.z.z.",
"z.z.z.z.z.z.z.z.z.z.z.z.z.z.z.z.z.z.z.z.z.z.l.L N *.:.5.3.O.o.o.o.X.X.} ^ 9 y n i.l.z.z.z.z.z.z.z.z.z.z.z.z.z.z.z.z.z.z.z.z.z.z.",
"z.z.z.z.z.z.z.z.z.z.z.z.z.z.z.z.z.z.z.z.z.z.l.l X 6.t.#.X.X.o.o.o.X.o.o. .R r . k l.z.z.z.z.z.z.z.z.z.z.z.z.z.z.z.z.z.z.z.z.z.z.",
"z.z.z.z.z.z.z.z.z.z.z.z.z.z.z.z.z.z.z.z.z.z.l.j X 6.e.] W X.o.o.o.o.o.o. .Y r   2 l.z.z.z.z.z.z.z.z.z.z.z.z.z.z.z.z.z.z.z.z.z.z.",
"z.z.z.z.z.z.z.z.z.z.z.z.z.z.z.z.z.z.z.z.z.z.k.l # 6.e.! Y  .o.o.o.o.o.o. .R p . l k.z.z.z.z.z.z.z.z.z.z.z.z.z.z.z.z.z.z.z.z.z.z.",
"z.z.z.z.z.z.z.z.z.z.z.z.z.z.z.z.z.z.z.z.l.L x -.,.2.#. .} X.o.o.o.o.o.o.X.} { i y x L l.z.z.z.z.z.z.z.z.z.z.z.z.z.z.z.z.z.z.z.z.",
"z.z.z.z.z.z.z.z.z.z.z.z.z.z.z.z.z.z.z.z.l.c . 4.t.#.o.o.O.o.X.o.o.o.o.o.o.o. .Y e   c l.z.z.z.z.z.z.z.z.z.z.z.z.z.z.z.z.z.z.z.z.",
"z.z.z.z.z.z.z.z.z.z.z.z.z.z.z.z.z.z.z.z.l.c . 4.r.#.o.o.o.o.o.o.o.o.o.o.o.o. .Y e . x l.z.z.z.z.z.z.z.z.z.z.z.z.z.z.z.z.z.z.z.z.",
"z.z.z.z.z.z.z.z.z.z.z.z.z.z.z.z.z.z.z.l.k.b @ >.r.#.X.X.o.o.o.o.o.o.o.o.o.o. .R r X x k.l.z.z.z.z.z.z.z.z.z.z.z.z.z.z.z.z.z.z.z.",
"z.z.z.z.z.z.z.z.z.z.z.z.z.z.z.z.z.z.z.J 2 ;.6.5.#.Q E  .o.o.o.o.o.o.o.o.o.o.X.| { r u 1 J l.z.z.z.z.z.z.z.z.z.z.z.z.z.z.z.z.z.z.",
"z.z.z.z.z.z.z.z.z.z.z.z.z.z.z.z.z.z.l.v   ,.y.2.X.W T | o.o.o.o.o.o.o.o.o.o.o.o.| Y e   v l.z.z.z.z.z.z.z.z.z.z.z.z.z.z.z.z.z.z.",
"z.z.z.z.z.z.z.z.z.z.z.z.z.z.z.z.z.z.z.v . ,.r.2.X. .| o.o.o.o.o.o.o.o.o.o.o.o.o.| Y 9   v z.z.z.z.z.z.z.z.z.z.z.z.z.z.z.z.z.z.z.",
"z.z.z.z.z.z.z.z.z.z.z.z.z.z.z.z.z.k.j.n $ >.e.2.X.o.o.X.X.X.o.o.o.o.o.o.o.o.X.o.} T i O b j.k.z.z.z.z.z.z.z.z.z.z.z.z.z.z.z.z.z.",
"z.z.z.z.z.z.z.z.z.z.z.z.z.z.z.z.z.G : ;.0.5.#.O.o.o.X.W E | o.o.o.o.o.o.X.o.o.o.X.X.{ I u ; G l.z.z.z.z.z.z.z.z.z.z.z.z.z.z.z.z.",
"z.z.z.z.z.z.z.z.z.z.z.z.z.z.z.z.l.M   :.t.2.X.X. .o.X.E T  .o.o.o.o.o.o.@.5.@.o.o.o.} R 9   M z.z.z.z.z.z.z.z.z.z.z.z.z.z.z.z.z.",
"z.z.z.z.z.z.z.z.z.z.z.z.z.z.z.z.z.M   :.r.1.o.W T  .X.X.X.X.o.o.X.o.o.O.@.6.@.o.o.o.} Y 9   M z.z.z.z.z.z.z.z.z.z.z.z.z.z.z.z.z.",
"z.z.z.z.z.z.z.z.z.z.z.z.z.z.z.k.h.B * ,.e.5.@./ W +.+.@.@.+.<.@.o.+.@.<.@.@.@.<.@.o...~ i O n h.k.z.z.z.z.z.z.z.z.z.z.z.z.z.z.z.",
"z.z.z.z.z.z.z.z.z.z.z.z.z.z.z.G & *.0.5.<.<.<.+.@.1.@.1.@.@.<.1.@.<.+.<.<.@.@.<.<.<.<.+.{ I 0 & G z.z.z.z.z.z.z.z.z.z.z.z.z.z.z.",
"z.z.z.z.z.z.z.z.z.z.z.z.z.z.z.M   ` t.#...@.O.O.@.@.+.@.@.O.+.O.@.@.o.@.O.@.o.@.@.o.@.o.} Y 9   V z.z.z.z.z.z.z.z.z.z.z.z.z.z.z.",
"z.z.z.z.z.z.z.z.z.z.z.z.z.z.z.V   =.t.{ T } o.o.X.X.o.X.o.o.X.o.o.o.o.o.o.o.o.o.o.o.o.o.} Y 0   V l.z.z.z.z.z.z.z.z.z.z.z.z.z.z.",
"z.z.z.z.z.z.z.z.z.z.z.z.z.j.g.C = :.e.[ T } o.o.O.o.o.o.o.o.o.o.o.o.o.o.o.o.o.o.o.o.o.o.} T i @ m g.j.z.z.z.z.z.z.z.z.z.z.z.z.z.",
"z.z.z.z.z.z.z.z.z.z.z.z.z.G % %.w.5.O.X.X.o.o.o.o.o.X.o.o.o.o.o.o.o.o.o.o.o.o.o.o.o.o.o.o.X.{ U 0 % G z.z.z.z.z.z.z.z.z.z.z.z.z.",
"z.z.z.z.z.z.z.z.z.z.z.z.z.F   _ u.3.X.O.o.o.X.X.} X.O.o.o.o.o.o.o.o.o.o.o.o.o.o.o.o.o.o.o.o.[ Y 6   V z.z.z.z.z.z.z.z.z.z.z.z.z.",
"z.z.z.z.z.z.z.z.z.z.z.z.z.F   _ y.3.X.O.X.o.o.' Y { o.o.o.o.o.o.o.o.o.o.o.o.o.o.o.o.o.o.o.o.} Y 8   F z.z.z.z.z.z.z.z.z.z.z.z.z.",
"z.z.z.z.z.z.z.z.z.z.z.z.z.F   _ t.#.} X.o.X.O.' T } o.o.o.o.o.o.o.o.o.o.o.o.o.o.o.o.o.o.o.o.} Y 8   F z.z.z.z.z.z.z.z.z.z.z.z.z.",
"z.z.z.z.z.z.z.z.z.z.z.z.z.F   _ t.[ Y } o.O.O.X.X.o.o.o.o.o.o.o.o.o.o.o.o.o.o.o.o.o.o.o.o.o.} P 8   V z.z.z.z.z.z.z.z.z.z.z.z.z.",
"z.z.z.z.z.z.z.z.z.z.z.z.z.V   _ t.} W } o.| } X.o.o.o.o.o.o.o.o.o.o.o.o.o.o.o.o.o.o.o.o.o.o.} Y 6   F z.z.z.z.z.z.z.z.z.z.z.z.z.",
"z.z.z.z.z.z.z.z.z.z.z.z.z.F   *.t.3.X.X.X.W Y } o.o.o.o.o.o.o.o.o.o.o.o.o.o.o.o.o.o.o.o.o.o.[ Y 6   F z.z.z.z.z.z.z.z.z.z.z.z.z.",
"z.z.z.z.z.z.z.z.z.z.z.z.z.F   _ y.3.X.o.o.' W } o.o.o.o.o.o.o.o.o.o.o.o.o.o.o.o.o.o.o.o.o.o.} P 8   F z.z.z.z.z.z.z.z.z.z.z.z.z.",
"z.z.z.z.z.z.z.z.z.z.z.z.z.F   _ t.3.o.o.o.X.X.o.o.X.X.o.o.o.o.o.o.o.o.o.o.o.o.o.o.o.o.o.o.o.} Y 6   F z.z.z.z.z.z.z.z.z.z.z.z.z.",
"z.z.z.z.z.z.z.z.z.z.z.z.z.V   _ t.3.X.o.o.o.o.} } X.o.o.o.o.o.o.o.o.o.o.o.o.o.o.o.o.o.o.o.o.} Y 6   F z.z.z.z.z.z.z.z.z.z.z.z.z.",
"z.z.z.z.z.z.z.z.z.z.z.z.z.F   _ u.9.X.o.o.o.X.W Y | o.o.o.o.o.o.o.o.o.o.o.o.o.o.o.o.o.o.o.o.} Y 8   F z.z.z.z.z.z.z.z.z.z.z.z.z.",
"z.z.z.z.z.z.z.z.z.z.z.z.z.d.M A _ 1.3. .[ X.X.' !  .O.O.o.o.o.o.o.o.o.o.o.o.o.o.o.o.o.o.X.} ~ 8 a M s.z.z.z.z.z.z.z.z.z.z.z.z.z.",
"z.z.z.z.z.z.z.z.z.z.z.z.z.z.z.V   ` t.' P } O.X.X.X.o.o.o.o.o.o.o.o.o.o.o.o.o.o.o.o.o.o.} T 8   V z.z.z.z.z.z.z.z.z.z.z.z.z.z.z.",
"z.z.z.z.z.z.z.z.z.z.z.z.z.z.z.M   =.t. .Q  .o.O.o.o.o.o.o.o.o.o.o.o.o.o.o.o.o.o.o.o.o.o.} P 8   M z.z.z.z.z.z.z.z.z.z.z.z.z.z.z.",
"z.z.z.z.z.z.z.z.z.z.z.z.z.z.z.V   ` y.3.X.X.X.X.o.o.o.o.X.o.o.o.o.o.o.o.o.o.o.o.o.o.O.O.} R 9   V z.z.z.z.z.z.z.z.z.z.z.z.z.z.z.",
"z.z.z.z.z.z.z.z.z.z.z.z.z.z.z.d.V S ( 1.9.9.9.@.X.[ [ X.o.o.o.o.o.o.o.o.o.o.o.o.X.[ [ [ ~ 5 a V d.z.z.z.z.z.z.z.z.z.z.z.z.z.z.z.",
"z.z.z.z.z.z.z.z.z.z.z.z.z.z.z.z.z.M   ,.u.y.t.2.X.E P  .o.o.o.o.o.o.o.o.o.o.o.o.} Y P P 9   M z.z.z.z.z.z.z.z.z.z.z.z.z.z.z.z.z.",
"z.z.z.z.z.z.z.z.z.z.z.z.z.z.z.z.z.d.J S ( h ( 1.9.X. .X.o.o.o.o.o.o.o.o.X.] ] ] W 5 4 4 a H d.z.z.z.z.z.z.z.z.z.z.z.z.z.z.z.z.z.",
"z.z.z.z.z.z.z.z.z.z.z.z.z.z.z.z.z.z.z.v     X 4.u.t.t.2.o.o.o.o.o.o.o.o.| Y Y Y w .     x z.z.z.z.z.z.z.z.z.z.z.z.z.z.z.z.z.z.z.",
"z.z.z.z.z.z.z.z.z.z.z.z.z.z.z.z.z.z.z.f.L L L A g g h / ' ' ' ' ' ' ' ' W 5 3 3 a K L L f.z.z.z.z.z.z.z.z.z.z.z.z.z.z.z.z.z.z.z.",
"z.z.z.z.z.z.z.z.z.z.z.z.z.z.z.z.z.z.z.z.z.z.l.l     . r P P P P P P P P p .     2 l.z.z.z.z.z.z.z.z.z.z.z.z.z.z.z.z.z.z.z.z.z.z.",
"z.z.z.z.z.z.z.z.z.z.z.z.z.z.z.z.z.z.z.z.z.z.l.f.p.p.8.q 3 3 3 3 3 3 3 3 q 8.a.p.f.z.z.z.z.z.z.z.z.z.z.z.z.z.z.z.z.z.z.z.z.z.z.z.",
"z.z.z.z.z.z.z.z.z.z.z.z.z.z.z.z.z.z.z.z.z.z.z.z.z.z.k.>                 , k.z.z.z.z.z.z.z.z.z.z.z.z.z.z.z.z.z.z.z.z.z.z.z.z.z.z.",
"z.z.z.z.z.z.z.z.z.z.z.z.z.z.z.z.z.z.z.z.z.z.z.z.z.z.l.f.a.a.a.a.s.a.a.a.f.l.z.z.z.z.z.z.z.z.z.z.z.z.z.z.z.z.z.z.z.z.z.z.z.z.z.z.",
"z.z.z.z.z.z.z.z.z.z.z.z.z.z.z.z.z.z.z.z.z.z.z.z.z.z.z.z.z.z.z.z.z.z.z.z.z.z.z.z.z.z.z.z.z.z.z.z.z.z.z.z.z.z.z.z.z.z.z.z.z.z.z.z.",
"z.z.z.z.z.z.z.z.z.z.z.z.z.z.z.z.z.z.z.z.z.z.z.z.z.z.z.z.z.z.z.z.z.z.z.z.z.z.z.z.z.z.z.z.z.z.z.z.z.z.z.z.z.z.z.z.z.z.z.z.z.z.z.z.",
"z.z.z.z.z.z.z.z.z.z.z.z.z.z.z.z.z.z.z.z.z.z.z.z.z.z.z.z.z.z.z.z.z.z.z.z.z.z.z.z.z.z.z.z.z.z.z.z.z.z.z.z.z.z.z.z.z.z.z.z.z.z.z.z."
};
