/* XPM */
static char *d1406e69539642d1caa5efc49cb3151cA2JEtXTbmtm4SyUt[] = {
/* columns rows colors chars-per-pixel */
"64 64 237 2 ",
"   c #020202",
".  c #0C0101",
"X  c #010D02",
"o  c #0C000A",
"O  c #0B0B0B",
"+  c #070706",
"@  c #140100",
"#  c #1A0101",
"$  c #130907",
"%  c #011300",
"&  c #091905",
"*  c #19190A",
"=  c #0B0813",
"-  c #170414",
";  c #141414",
":  c #04121B",
">  c #220200",
",  c #331300",
"<  c #2B1C15",
"1  c #0B2504",
"2  c #18270A",
"3  c #163113",
"4  c #17310F",
"5  c #29240C",
"6  c #041522",
"7  c #1E1628",
"8  c #221C2A",
"9  c #34312C",
"0  c #3A383A",
"q  c #491F00",
"w  c #4A3100",
"e  c #433836",
"r  c #2B5F19",
"t  c #234715",
"y  c #1D6100",
"u  c #2B6415",
"i  c #346B1B",
"p  c #387A19",
"a  c #2D6F11",
"s  c #36462B",
"d  c #345A25",
"f  c #374238",
"g  c #3D5135",
"h  c #397227",
"j  c #194E06",
"k  c #48441F",
"l  c #4D4929",
"z  c #41752E",
"x  c #497039",
"c  c #353444",
"v  c #4A3D45",
"b  c #533D51",
"n  c #443755",
"m  c #4B484A",
"M  c #55584D",
"N  c #444A53",
"B  c #53495A",
"V  c #565757",
"C  c #515147",
"Z  c #685D53",
"A  c #4B6A41",
"S  c #7F7646",
"D  c #554E72",
"F  c #635677",
"G  c #5F6062",
"H  c #64626E",
"J  c #6D646D",
"K  c #6A6867",
"L  c #696972",
"P  c #716E73",
"I  c #767677",
"U  c #716F66",
"Y  c #8B6A04",
"T  c #9E7600",
"R  c #9F7E13",
"E  c #926A0E",
"W  c #A77400",
"Q  c #A97A14",
"!  c #82712B",
"~  c #87787C",
"^  c #87704E",
"/  c #39851E",
"(  c #428826",
")  c #4B8834",
"_  c #4F9734",
"`  c #59A137",
"'  c #558742",
"]  c #63994E",
"[  c #59A040",
"{  c #6BAD51",
"}  c #6F8167",
"|  c #79B064",
" . c #999408",
".. c #968E0F",
"X. c #A58708",
"o. c #A2920B",
"O. c #A89A05",
"+. c #B79501",
"@. c #AE8D19",
"#. c #BBA306",
"$. c #B8B302",
"%. c #BDA118",
"&. c #B2B017",
"*. c #998724",
"=. c #91893B",
"-. c #98953C",
";. c #928E2A",
":. c #A28821",
">. c #A99836",
",. c #BA9024",
"<. c #B5B433",
"1. c #A0A320",
"2. c #C39A09",
"3. c #DB9B04",
"4. c #C9A900",
"5. c #DBAB05",
"6. c #C7B900",
"7. c #DCBC00",
"8. c #DBB100",
"9. c #C8A917",
"0. c #C9BB1D",
"q. c #E9A801",
"w. c #F3AB00",
"e. c #FFAF0D",
"r. c #ECBE00",
"t. c #E8B406",
"y. c #F3B300",
"u. c #FEB603",
"i. c #F6BD02",
"p. c #FCBC02",
"a. c #FFB40D",
"s. c #FEBC0A",
"d. c #F3B80A",
"f. c #EBAC10",
"g. c #EDB618",
"h. c #FEBC14",
"j. c #FAB716",
"k. c #FFAE16",
"l. c #C7B923",
"z. c #DBAD39",
"x. c #CCA526",
"c. c #E2B426",
"v. c #FFBE22",
"b. c #BFC00D",
"n. c #E8C706",
"m. c #F4C301",
"M. c #FDC503",
"N. c #F5CA00",
"B. c #FECD02",
"V. c #FFC40B",
"C. c #F6CC0D",
"Z. c #FCCD0B",
"A. c #F6D300",
"S. c #FED103",
"D. c #FEDB01",
"F. c #FED20A",
"G. c #FDDB0C",
"H. c #F6D90A",
"J. c #EEC714",
"K. c #FCC413",
"L. c #F6CC14",
"P. c #FDCC14",
"I. c #FDCA1B",
"U. c #FFC619",
"Y. c #FCD212",
"T. c #FFDB13",
"R. c #FFDB1C",
"E. c #F7D615",
"W. c #EEDA09",
"Q. c #FEE401",
"!. c #FDEA01",
"~. c #FFE80C",
"^. c #FFF106",
"/. c #FFF80A",
"(. c #FDE21B",
"). c #FAE713",
"_. c #FFFB15",
"`. c #CFC625",
"'. c #FECD25",
"]. c #FED127",
"[. c #EDD936",
"{. c #FEE428",
"}. c #DBC710",
"|. c #958B47",
" X c #A89356",
".X c #B19345",
"XX c #8F827A",
"oX c #80BE6B",
"OX c #B5AC51",
"+X c #D6AD41",
"@X c #685D85",
"#X c #676482",
"$X c #756B92",
"%X c #84778F",
"&X c #8B7EB6",
"*X c #848484",
"=X c #898989",
"-X c #969698",
";X c #8F8C91",
":X c #9CA298",
">X c #A2AE98",
",X c #918FB0",
"<X c #A1A1A1",
"1X c #ABABA9",
"2X c #B3B1B6",
"3X c #B4ACAA",
"4X c #C1BCA7",
"5X c #C0BFBB",
"6X c #BAC0B6",
"7X c #C4BAC8",
"8X c #D1D0D3",
"9X c #DAE6DC",
"0X c #E4E8D6",
"qX c #FBFDDC",
"wX c #F3F8D7",
"eX c #ECF5D8",
"rX c #EDEDED",
"tX c #EAE9E3",
"yX c #F2ECE8",
"uX c #ECF3E4",
"iX c #FDFCE4",
"pX c #F4F4EB",
"aX c #F6FAED",
"sX c #FDFEEC",
"dX c #F8F8E5",
"fX c #EAE7F8",
"gX c #F3ECF7",
"hX c #EDF3F4",
"jX c #EEF2FC",
"kX c #F4F4F4",
"lX c #FAF5F6",
"zX c #F5FDF4",
"xX c #FCFEF4",
"cX c #F5F4FE",
"vX c #FBF5FF",
"bX c #F6FCFE",
"nX c #FEFEFF",
/* pixels */
"nXnXnXnXnXnXnXnXnXnXnXnXnXnXnXnXnXnXnXnXnXnXnXnXnXnXnXnXnXnXnXnXvXnXnXkXnXkXnXvXnXnXnXnXnXnXnXnXbXnXkXxXnXnXnXnXnXnXnXnXnXnXnXnX",
"nXnXnXnXnXnXnXnXnXnXnXnXnXnXnXnXnXnXnXnXnXnXnXnXnXnXnXnXnXnXnXnXnXnXnXnXnXlXnXnXnXnXnXnXnXnXnXnXnXnXnXnXbXnXnXnXnXnXnXnXnXnXnXnX",
"nXnXnXnXnXnXnXnXnXnXnXnXnXnXnXnXnXnXnXnXnXnXnXnXnXnXnXnXnXnXnXnXnXnXnXnXnXnXnXnXnXnXnXnXnXnXnXnXbXvXnXnXlXnXnXnXnXnXnXnXnXnXnXnX",
"nXnXnXnXnXnXnXnXnXnXnXnXnXnXnXnXnXnXnXnXnXnXnXnXnXnXnXnXnXnXnXnXlXbXnXnXvXnXzXvXnXnXnXnXnXnXnXnXnXkXnXnXnXnXvXnXnXnXnXnXnXnXnXnX",
"nXnXnXnXnXnXnXnXnXnXnXnXnXnXnXnXnXnXnXnXnXnXnXnXnXnXnXnXnXnXnXnXnXnXnXkXxXnXnXnXlXlXbXvXxXvXbXlXnXlXnXnXnXnXnXnXnXnXnXnXnXnXnXnX",
"nXnXnXnXnXnXnXnXnXnXnXnXnXnXnXnXnXnXnXnXnXnXnXnXnXnXnXnXnXnXnXnXnXnXnXvXnXtXbXlXnXnXnXnXnXnXnXnXkXnXxXbXnXvXnXnXnXnXnXnXnXnXnXnX",
"nXnXnXnXnXnXnXnXnXnXnXnXnXnXnXnXnXnXnXnXnXnXnXnXnXnXnXnXnXnXnXnXnXvXnXnXlX*X-X=X*X*X*X*X*X*X*X*X<XnXnXvXnXlXnXbXnXnXnXnXnXnXnXnX",
"nXnXnXnXnXnXnXnXnXnXnXnXnXnXnXnXnXnXnXnXnXnXnXnXnXnXnXnXnXnXnXnXnXxXnXnX8X+ +                   V lXnXnXnXkXnXlXnXnXnXnXnXnXnXnX",
"nXnXnXnXnXnXnXnXnXnXnXnXnXnXnXnXnXnXnXnXnXnXnXnXnXbXnXvXnXvXkXbXkXnXgX~ I x r h z p u u j 4 3 % C nXbXlXnXbXnXnXnXnXnXnXnXnXnXnX",
"nXnXnXnXnXnXnXnXnXnXnXnXnXnXnXnXnXnXnXnXnXnXnXnXnXpXnXnXpXnXnXtXnXnX9X& + oXoX` { | [ ) ' x d   K bXkXlXnXnXnXnXnXnXnXnXnXnXnXnX",
"nXnXnXnXnXnXnXnXnXnXnXnXnXnXnXnXnXnXnXnXnXnXnXnXnXnXlXnXhXI I nXnXI U z p _ ( ` ( _ ( i d 2 M :X2XnXnXnXnXnXlXnXnXnXnXnXnXnXnXnX",
"nXnXnXnXnXnXnXnXnXnXnXnXnXnXnXnXnXnXnXnXnXnXnXnXvXnXrXnXlX; O kXgXX % ] { ` a / / / ) r t X C xXvXnXnXnXnXnXvXnXnXnXnXnXnXnXnXnX",
"nXnXnXnXnXnXnXnXnXnXnXnXnXnXnXnXnXnXnXnXnXnXnXnXkXnXnXnXvX1X;XK J $ 1 ) p y p i p u h % g :X2XnXnXkXnXbXbXnXnXnXnXnXnXnXnXnXnXnX",
"nXnXnXnXnXnXnXnXnXnXnXnXnXnXnXnXnXnXnXnXnXnXnXnXnXnXnXnXnXnXnX; . + % t h r x d h d d % M nXnXkXnXrXnXnXnXnXnXlXnXnXnXnXnXnXnXnX",
"nXnXnXnXnXnXnXnXnXnXnXnXnXnXnXnXnXnXnXnXnXnXnXnXnXnXlXnXnXkXrX; ; 1X:X3 3 1 3 & 1 & C -X2XnXnXnXnXnXnXnXnXvXnXlXnXnXnXnXnXnXnXnX",
"nXnXnXnXnXnXnXnXnXnXnXnXnXnXnXnXnXnXnXnXnXnXnXnXnXxXbXnXnXlXnX; + lXpXO         X   N vXnXvXvXxXvXnXnXkXnXkXnXnXnXnXnXnXnXnXnXnX",
"nXnXnXnXnXnXnXnXnXnXnXnXnXnXnXnXiXsXiXxXkXcXnXxXnXsXwXjXbXnXlXO O fXvX7X7X3X4X4X>X6X7XdXxXsXxXbXnXnXnXnXnXnXnXnXnXnXnXnXnXnXnXnX",
"nXnXnXnXnXnXnXnXnXnXnXnXnXnXnXnXvXcXvXuXxXnXgXsXvXbXbXnXjXnXyX; O rXnXrXnXnXfXcXnXgXnXxXdXnXbXnXnXnXnXnXnXnXnXnXnXnXnXnXnXnXnXnX",
"nXnXnXnXnXnXnXnXnXnXnXnXnXnXnXnXxXnXnXaXnXI B B B s l 0XxXiXwX- * aXsXeX0Xs m V v n $XxXxXbXvXyXnXnXnXnXnXnXnXnXnXnXnXnXnXnXnXnX",
"nXnXnXnXnXnXnXnXnXnXnXnXnXnXnXnXxXiXkXnXcXe     o   2 8XnXnX0X; % 9XbXbXfX- - o > # l hXbXjXnXvXnXnXnXnXnXnXnXnXnXnXnXnXnXnXnXnX",
"nXnXnXnXnXnXnXnXnXnXnXnXnXnXnXnXfXxXnX$Xe <.$.`.6.$.<.k c N f : X N N e e x.+.4.,.O.*.0 $XbXsXnXnXnXnXnXnXnXnXnXnXnXnXnXnXnXnXnX",
"nXnXnXnXnXnXnXnXnXnXnXnXnXnXnXnXnXsXtXv @ 6._.E.Q.!.[.w - + + + - o o @ q z.V.p.J.(.#.# B pXsXvXnXnXnXnXnXnXnXnXnXnXnXnXnXnXnXnX",
"nXnXnXnXnXnXnXnXnXnXnXnXnXnXnXnXiXU 5 OX`.n.{.d.I.F.t.2.x.+.4.4.4.+.4.2.c.3.U.a.w.Z.5.9..X< I bXnXnXnXnXnXnXnXnXnXnXnXnXnXnXnXnX",
"nXnXnXnXnXnXnXnXnXnXnXnXnXnXnXnXnXD @ &./.A.V.A.Z.A.D.M.d.V.u.j.v.a.K.t.i.Z.w.s.u.k.u.m.%.o D zXnXnXnXnXnXnXnXnXnXnXnXnXnXnXnXnX",
"nXnXnXnXnXnXnXnXxXpXdXnXbXpXiX$X7 >.W.8.U.R.A.N.B.B.B.B.M.B.B.N.M.M.B.M.B.M.B.V.B.M.'.t.3.f..X7 $XqXaXnXlXiXnXzXnXnXnXnXnXnXnXnX",
"nXnXnXnXnXnXnXnXhXnXsXnXbXzXqXM $ O.).T.Z.N.N.G.A.S.B.B.B.B.B.N.Z.B.B.B.B.B.B.B.S.i.J.M.M.U.X.$ C wXzXbXnXsXnXhXnXnXnXnXnXnXnXnX",
"nXnXnXnXnXnXnXnXnXxX0XrXbXL 2 -.`.W.D.m.S.Q.D.E.D.S.S.Z.Z.B.B.B.B.B.S.B.S.B.B.B.M.Z.T.B.u.u.g.9.=.< L bXpX0XnXnXnXnXnXnXnXnXnXnX",
"nXnXnXnXnXnXnXnXvXxXxXlXzXF + 1._.D.m.M.D.Q.!.G.Q.D.S.S.F.B.B.S.B.B.S.Z.Z.S.B.B.P.B.B.N.M.u.M.S...# F aXnXnXxXvXnXnXnXnXnXnXnXnX",
"nXnXnXnXnXnXnXnXnXsXxXgXbX#X+  .Q.m.V.T.D.Q.Q.).Q.D.S.F.S.S.S.S.S.S.B.Z.Z.S.B.S.F.B.m.B.'.j.w.p.X.@ @XbXbXnXdXnXnXnXnXnXnXnXnXnX",
"nXnXnXnXnXnXnXnXnXpXnXvXnXU @ %._.Y.K.G.Q.Q.!.!.Q.Q.D.S.S.Z.Z.B.B.B.Z.Z.Z.Z.B.B.N.S.D.F.K.d.s.].2.> U nXnXnXdXnXnXnXnXnXnXnXnXnX",
"nXnXnXnXnXnXnXnXxXnXnXI $ ;.[.J.n.m.Z.Q.Q.E.W.!.Q.Q.D.S.B.B.Z.F.A.B.F.P.P.Z.B.S.B.B.Z.Z.F.B.p.w.f.c.! o L nXxXaXnXnXnXnXnXnXnXnX",
"nXnXnXnXnXnXnXnXbXbXlXK    .^.N.D.B.M.A.!.{.{.!.!.Q.D.D.B.B.B.S.S.Z.P.P.P.P.Z.S.B.B.V.B.A.D.S.u.u.D...@ H lXnXxXnXnXnXnXnXnXnXnX",
"nXnXnXnXnXnXnXnXnXxXxXH . o.^.Z.S.B.C.C.C.E.G.).E.L.L.C.C.L.L.Y.L.L.L.L.L.L.L.L.U.L.Z.Z.Z.Z.M.p.u.M.X.o G nXbXnXnXnXnXnXnXnXnXnX",
"nXnXnXnXnXnXnXnXnXbXxXH . o.^.C.B.Z.Z.Z.H.H.E.H.Y.F.Z.C.C.C.C.Z.C.P.C.C.Z.L.Z.L.Z.P.Z.B.Z.B.M.i.u.M.R . G nXvXnXnXnXnXnXnXnXnXnX",
"nXnXnXnXnXnXnXnXnXbXxXH . o.^.Z.S.B.B.Z.C.F.S.D.F.Z.Z.Z.Z.Z.Z.F.Z.Z.B.Z.Z.B.Z.Z.B.B.B.B.B.B.M.p.u.M.R . G bXvXnXnXnXnXnXnXnXnXnX",
"nXnXnXnXnXnXnXnXnXxXxXH . o.^.N.B.B.S.B.B.A.B.B.B.Z.B.N.B.B.B.B.B.B.B.B.B.B.B.A.B.A.B.A.S.Z.V.p.u.M.R . G nXbXnXnXnXnXnXnXnXnXnX",
"nXnXnXnXnXnXnXnXnXnXxXH . o.^.Z.A.B.B.S.B.B.B.M.B.B.B.B.B.B.B.B.B.B.B.B.B.B.B.B.A.B.S.B.S.Z.M.p.u.M.R . G bXbXxXnXnXnXnXnXnXnXnX",
"nXnXnXnXnXnXnXnXnXxXxXF . o.^.Z.B.B.B.B.B.B.B.B.B.B.B.B.B.S.B.B.S.B.S.S.B.S.B.S.B.B.S.B.S.B.V.i.u.M.R . G nXvXnXnXnXnXnXnXnXnXnX",
"nXnXnXnXnXnXnXnXnXbXxXH . o.^.C.Z.B.B.S.B.B.B.B.N.B.B.S.S.B.S.B.B.B.B.B.S.B.B.S.B.B.A.B.B.Z.V.u.u.M.:.. G nXbXxXnXnXnXnXnXnXnXnX",
"nXnXnXnXnXnXnXnXnXxXxXH . o.^.M.Z.B.B.B.S.S.Z.Z.A.B.B.B.S.B.S.S.S.S.S.S.Z.S.B.S.B.Z.B.B.B.B.B.p.u.M.R . G bXbXnXnXnXnXnXnXnXnXnX",
"nXnXnXnXnXnXnXnXdXnXnXK   1.W.D.Z.Z.Z.S.F.B.B.M.B.S.B.B.B.S.B.S.B.B.B.B.B.B.S.B.B.B.N.B.F.Z.V.u.e.m.:.o J xXgXsXnXnXnXnXnXnXnXnX",
"nXnXnXnXnXnXnXnXxXvXnXK . 1.^.S.M.B.M.N.N.B.B.B.B.B.B.B.B.B.B.B.B.B.B.S.B.B.B.B.S.B.B.B.B.B.u.y.u.D.:.+ J nXvXxXnXnXnXnXnXnXnXnX",
"nXnXnXnXnXnXnXnXbXfXlXP   ;.~.A.S.B.A.B.N.B.B.S.B.B.B.B.B.B.S.B.B.S.B.B.B.B.B.B.B.B.B.B.S.F.M.u.u.n.*.@ J xXcXnXnXnXnXnXnXnXnXnX",
"nXnXnXnXnXnXnXnXnXnXnXI 9 |.0.}.D.D.B.S.B.B.B.B.B.S.B.B.B.B.B.B.B.B.B.B.S.B.B.B.B.B.B.B.B.B.M.M.f.%.^ 9 P nXnXbXnXnXnXnXnXnXnXnX",
"nXnXnXnXnXnXnXnXbXpXnXvXnXZ $ 9.D.A.N.N.B.F.S.B.B.B.B.B.B.S.B.B.B.B.B.B.B.S.S.B.N.F.S.B.M.p.i.i.@.# Z nXnXvXyXnXnXnXnXnXnXnXnXnX",
"nXnXnXnXnXnXnXnXnXxXnXcXnXF . >.).G.B.N.B.B.S.S.B.B.S.B.B.B.B.B.S.B.B.B.B.B.B.B.N.S.Z.B.M.i.V.K.R o F nXbXlXxXnXnXnXnXnXnXnXnXnX",
"nXnXnXnXnXnXnXnXbXsXkXgXxX#X- >.).G.F.B.B.B.B.B.S.B.B.B.B.B.B.B.B.B.B.B.B.S.B.B.N.B.B.Z.V.s.h.g.*.- #XxXkXkXsXbXnXnXnXnXnXnXnXnX",
"nXnXnXnXnXnXnXnXnXsXnXbXzX;Xm ..6.7.m.B.B.B.B.S.B.B.B.S.B.B.B.B.B.B.B.S.B.B.B.B.G.B.N.M.M.d.q.3...0 ;XaXxXnXxXnXnXnXnXnXnXnXnXnX",
"nXnXnXnXnXnXnXnXlXnXlXbXnXbXnXM o &./.N.B.B.m.D.M.N.B.S.B.F.N.B.S.B.B.M.B.D.N.B.Q.N.V.h.h.G.O.. V lXnXvXnXlXbXkXnXnXnXnXnXnXnXnX",
"nXnXnXnXnXnXnXnXnXnXvXxXnXlXnX<XK =.O.W.D.B.P.N.{.Z.m.B.Z.B.B.S.S.m.Z.Z.B.N.F.].N.I.M.d.5.X.! J <XnXbXxXnXlXnXnXnXnXnXnXnXnXnXnX",
"nXnXnXnXnXnXnXnXnXnXnXnXnXlXnXrXqXD $ $._.E.d.T.n.A.D.i.h.'.R.V.M.R.].C.m.S.B.r.I.j.U.S.O.> @XwXrXnXbXnXnXxXnXnXnXnXnXnXnXnXnXnX",
"nXnXnXnXnXnXnXnXbXvXnXnXnXbXlXnXlX,XP |. .}.A.m.S.S.B.B.P.y.i.M.m.i.y.P.M.M.B.B.a.w.5.X.-.J ,XxXnXlXnXnXnXnXvXnXnXnXnXnXnXnXnXnX",
"nXnXnXnXnXnXnXnXvXnXnXnXnXnXkXnXnXxXwXN X `._.P.I.U.p.u.V.M.G.N.n.S.p.M.w.w.a.j.j.Q.9.@ m wXxXbXnXlXnXnXnXnXnXnXnXnXnXnXnXnXnXnX",
"nXnXnXnXnXnXnXnXnXnXnXbXvXnXvXnXyXnXxX-X%X XY 7.r.B.B.M.g.W :.E Y @.W g.i.M.M.y.5.Y ^ %X-XxXxXrXnXbXnXnXlXnXnXnXnXnXnXnXnXnXnXnX",
"nXnXnXnXnXnXnXnXnXnXlXbXlXnXnXnXsXnXvXaXxXb # l.R.n.r.'.+X, o = - # , +X'.r.r.T.0.> B iXaXnXnXiXnXnXnXnXbXnXnXnXnXnXnXnXnXnXnXnX",
"nXnXnXnXnXnXnXnXlXnXlXnXlXbXnXxXnXqXxXvXsX;X~ ^ E Q T Y >.S P 6 6 K S >.Y W Q E ^ XX;XxXvXxXwXlXnXnXlXnXnXnXnXvXnXnXnXnXnXnXnXnX",
"nXnXnXnXnXnXnXnXnXnXnXnXnXnXnXnXnXnXrXnXnXnXrX0     + + O rXkX; ; lXrX= + +     0 kXnXnXnXkXnXnXnXnXnXnXnXnXnXnXnXnXnXnXnXnXnXnX",
"nXnXnXnXnXnXnXnXnXnXnXnXnXnXnXnXlXnXkXnXvXnXnX<X*X*X*X*X*XrXpX*X*XgXpX*X=X*X*X*X-XnXnXkXnXvXnXzXnXnXnXnXnXnXnXnXnXnXnXnXnXnXnXnX",
"nXnXnXnXnXnXnXnXnXnXnXnXnXnXnXnXvXnXnXnXxXlXnXlXnXnXnXnXnXnXnXnXnXnXnXnXnXnXnXnXlXnXkXvXnXnXnXvXnXnXnXnXnXnXnXnXnXnXnXnXnXnXnXnX",
"nXnXnXnXnXnXnXnXnXnXnXnXnXnXnXnXnXxXnXnXnXnXbXnXlXnXbXrXnXlXgXnXnXkXlXbXrXbXnXlXnXbXnXnXnXnXnXnXnXnXnXnXnXnXnXnXnXnXnXnXnXnXnXnX",
"nXnXnXnXnXnXnXnXnXnXnXnXnXnXnXnXnXnXnXbXnXnXkXnXbXnXnXkXnXnXnXxXvXnXnXnXkXnXnXnXnXpXnXnXbXnXnXnXnXnXnXnXnXnXnXnXnXnXnXnXnXnXnXnX",
"nXnXnXnXnXnXnXnXnXnXnXnXnXnXnXnXlXnXnXvXbXnXkXnXnXlXnXbXnXkXnXbXbXnXkXnXvXnXkXnXnXvXnXnXxXnXnXlXnXnXnXnXnXnXnXnXnXnXnXnXnXnXnXnX",
"nXnXnXnXnXnXnXnXnXnXnXnXnXnXnXnXvXnXnXnXxXvXnXnXnXkXnXnXnXlXnXnXnXnXlXnXnXnXlXnXnXnXvXbXnXnXnXvXnXnXnXnXnXnXnXnXnXnXnXnXnXnXnXnX",
"nXnXnXnXnXnXnXnXnXnXnXnXnXnXnXnXnXnXlXnXnXvXnXlXnXnXnXvXnXnXnXnXnXnXnXnXlXnXnXnXlXnXlXnXnXlXnXnXnXnXnXnXnXnXnXnXnXnXnXnXnXnXnXnX"
};
